<svg width="20" height="20" fill="none" xmlns="http://www.w3.org/2000/svg"><g clip-path="url(#clip0)"><path d="M19.7 16.6H.3a.3.3 0 01-.3-.4V3.8c0-.2.2-.4.3-.4h19.4c.1 0 .3.2.3.4v12.4c0 .2-.2.4-.3.4z" fill="#F5F5F5"/><path d="M20 4.5H0v-.7c0-.2.2-.4.3-.4h19.4c.1 0 .3.2.3.4v.7zM20 7.5H0v1h20v-1zM20 5.5H0v1h20v-1zM20 10.5H.3a.3.3 0 01-.3-.3v-.7h20v1zM20 13.5H0v1h20v-1zM19.7 16.6H.3a.3.3 0 01-.3-.4v-.7h20v.7c0 .2-.2.4-.3.4zM20 11.5H0v1h20v-1z" fill="#FF4B55"/><path d="M9 3.4H.3c-.1 0-.3.2-.3.4v6.4l.3.3H9c.2 0 .3-.2.3-.3V3.8c0-.2-.1-.4-.3-.4z" fill="#41479B"/><path d="M1 4.2v.3h.3l-.2.2v.2L1 4.8l-.2.1v-.2l-.1-.2h.2l.1-.3zM1 5.4v.3h.3l-.2.2V6L1 6l-.2.1v-.2l-.1-.2h.2l.1-.3zM1 6.6V7h.3l-.2.2v.2L1 7.2l-.2.1v-.2l-.1-.2h.2l.1-.3zM1 7.8v.3h.3l-.2.2v.2L1 8.4l-.2.1v-.2L.7 8h.2l.1-.3zM1 9v.3h.3l-.2.2v.2L1 9.6l-.2.1v-.2l-.1-.2h.2L1 9zM1.9 4.8v.3h.3l-.2.2.1.2-.2-.1-.2.1v-.2L1.5 5h.3v-.3H2zM1.9 6v.3h.3l-.2.2.1.2-.2-.1-.2.1v-.2l-.2-.2h.3V6H2zM1.9 7.2v.3h.3l-.2.2.1.2-.2-.1-.2.1v-.2l-.2-.2h.3v-.3H2zM1.9 8.4v.2h.3v.1L2 9l.1.2-.2-.1-.2.1v-.2l-.2-.2h.3v-.3H2zM2.8 4.2l.1.3h.2l-.1.2v.2l-.2-.1-.2.1v-.2l-.2-.2h.3v-.3h.1zM2.8 5.4l.1.3h.2L3 6V6L2.8 6l-.2.1v-.2l-.2-.2h.3v-.3h.1zM2.8 6.6L3 7h.2l-.1.2v.2l-.2-.1-.2.1v-.2l-.2-.2h.3v-.3h.1zM2.8 7.8l.1.3h.2l-.1.2v.2l-.2-.1-.2.1v-.2L2.4 8h.3v-.3h.1zM2.8 9l.1.3h.2l-.1.2v.2l-.2-.1-.2.1v-.2l-.2-.2h.3V9h.1zM3.8 4.8v.3h.3l-.2.2v.2l-.2-.1-.2.1v-.2L3.5 5h.2v-.3h.2zM3.8 6v.3h.3l-.2.2v.2l-.2-.1-.2.1v-.2l-.1-.2h.2V6h.2zM3.8 7.2v.3h.3l-.2.2v.2l-.2-.1-.2.1v-.2l-.1-.2h.2v-.3h.2zM3.8 8.4v.2h.3v.1l-.2.2V9L3.7 9l-.2.1v-.2l-.1-.2h.2v-.3h.2zM4.7 4.2v.3H5l-.2.2.1.2-.2-.1-.2.1s-.1 0 0 0v-.2l-.2-.2h.2l.1-.3zM4.7 5.4v.3H5l-.2.2.1.2-.2-.1-.2.1s-.1 0 0 0v-.2l-.2-.2h.2l.1-.3zM4.7 6.6V7H5l-.2.2.1.2-.2-.1-.2.1s-.1 0 0 0v-.2l-.2-.2h.2l.1-.3zM4.7 7.8v.3H5l-.2.2.1.2-.2-.1-.2.1s-.1 0 0 0v-.2L4.3 8h.2l.1-.3zM4.7 9v.3H5l-.2.2.1.2-.2-.1-.2.1s-.1 0 0 0v-.2l-.2-.2h.2l.1-.3zM5.6 4.8v.3H6l-.1.2v.2l-.2-.1-.2.1v-.2L5.2 5h.3v-.3h.1zM5.6 6v.3H6l-.1.2v.2l-.2-.1-.2.1v-.2l-.2-.2h.3V6h.1zM5.6 7.2v.3H6l-.1.2v.2l-.2-.1-.2.1v-.2l-.2-.2h.3v-.3h.1zM5.6 8.4v.2H6v.1l-.1.2V9L5.6 9l-.2.1v-.2l-.2-.2h.3v-.3h.1zM6.5 4.2l.1.3H7l-.2.2v.2l-.2-.1-.2.1v-.2l-.2-.2h.3v-.3h.1zM6.5 5.4l.1.3H7l-.2.2V6L6.5 6l-.2.1v-.2l-.2-.2h.3v-.3h.1zM6.5 6.6l.1.3H7l-.2.2v.2l-.2-.1-.2.1v-.2l-.2-.2h.3v-.3h.1zM6.5 7.8l.1.3H7l-.2.2v.2l-.2-.1-.2.1v-.2L6.1 8h.3v-.3h.1zM6.5 9l.1.3H7l-.2.2v.2l-.2-.1-.2.1v-.2l-.2-.2h.3V9h.1zM7.5 4.8v.3h.3l-.2.2v.2c.1 0 0 0 0 0l-.2-.1-.2.1v-.2L7.2 5h.2l.1-.3zM7.5 6v.3h.3l-.2.2v.2c.1 0 0 0 0 0l-.2-.1-.2.1v-.2l-.1-.2h.2l.1-.3zM7.5 7.2v.3h.3l-.2.2v.2c.1 0 0 0 0 0l-.2-.1-.2.1v-.2l-.1-.2h.2l.1-.3zM7.5 8.4v.2h.3v.1l-.2.2V9c.1 0 0 0 0 0L7.4 9l-.2.1v-.2l-.1-.2h.2l.1-.3zM8.4 4.2v.3h.3l-.2.2.1.2-.2-.1-.2.1v-.2L8 4.5h.3v-.3h.1zM8.4 5.4v.3h.3l-.2.2.1.2-.2-.1-.2.1v-.2L8 5.7h.3v-.3h.1zM8.4 6.6V7h.3l-.2.2.1.2-.2-.1-.2.1v-.2L8 6.9h.3v-.3h.1zM8.4 7.8v.3h.3l-.2.2.1.2-.2-.1-.2.1v-.2L8 8h.3v-.3h.1zM8.4 9v.3h.3l-.2.2.1.2-.2-.1-.2.1v-.2L8 9.3h.3V9h.1z" fill="#F5F5F5"/></g><defs><clipPath id="clip0"><path fill="#fff" d="M0 0h20v20H0z"/></clipPath></defs></svg>