<svg width="18" height="19" fill="none" xmlns="http://www.w3.org/2000/svg"><g clip-path="url(#clip0)"><path d="M14.2 2.4A6.9 6.9 0 009.4.6a7.6 7.6 0 00-5.6 2.1A6.4 6.4 0 002 7.2c0 2 .9 3.5 2.3 4l.2.1c.3 0 .6-.2.7-.5l.2-.8c0-.4 0-.5-.2-.8-.4-.5-.6-1-.6-1.8C4.5 5.2 6 3 9 3c2.4 0 4 1.4 4 3.6 0 1.3-.4 2.6-1 3.6-.3.6-1 1.4-2 1.4-.4 0-.8-.2-1-.5-.3-.3-.4-.7-.3-1l.4-1.5c.3-.8.5-1.6.5-2.2 0-1-.6-1.8-1.6-1.8-1.3 0-2.3 1.3-2.3 2.9 0 .8.3 1.4.3 1.6L5 14.4c-.1.4-.7 3.9.3 4.2 1.1.3 2.2-3 2.3-3.5L8 13c.6.6 1.5 1 2.4 1 1.6 0 3-.8 4.1-2.2 1-1.3 1.6-3 1.6-5 0-1.6-.7-3.2-1.9-4.3z" fill="#fff"/></g><defs><clipPath id="clip0"><path fill="#fff" transform="translate(0 .6)" d="M0 0h18v18H0z"/></clipPath></defs></svg>