<svg width="18" height="19" fill="none" xmlns="http://www.w3.org/2000/svg"><g clip-path="url(#clip0)"><path d="M18 4l-2.1.6c.7-.5 1.3-1.2 1.6-2-.7.4-1.5.7-2.3.8A3.7 3.7 0 008.8 6v.8c-3-.1-5.7-1.6-7.5-3.9-.4.6-.5 1.2-.5 1.9 0 1.3.6 2.4 1.6 3-.6 0-1.2-.1-1.7-.4 0 1.8 1.3 3.3 3 3.7A3.7 3.7 0 012 11a3.7 3.7 0 003.5 2.6A7.4 7.4 0 010 15.2a10.4 10.4 0 0016.2-8.8v-.5c.7-.5 1.3-1.2 1.8-1.9z" fill="#fff"/></g><defs><clipPath id="clip0"><path fill="#fff" transform="matrix(1 0 0 -1 0 18.6)" d="M0 0h18v18H0z"/></clipPath></defs></svg>